<?xml version="1.0" standalone="no"?>
<!DOCTYPE svg PUBLIC "-//W3C//DTD SVG 20010904//EN"
 "http://www.w3.org/TR/2001/REC-SVG-20010904/DTD/svg10.dtd">
<svg version="1.0" xmlns="http://www.w3.org/2000/svg"
 width="1200.000000pt" height="1408.000000pt" viewBox="0 0 1200.000000 1408.000000"
 preserveAspectRatio="xMidYMid meet">

<g transform="translate(0.000000,1408.000000) scale(0.100000,-0.100000)"
fill="#000000" stroke="none">
<path d="M6557 13980 c-659 -37 -1387 -180 -1957 -383 -1698 -605 -3121 -1908
-3909 -3577 -311 -657 -496 -1320 -587 -2096 -22 -185 -31 -972 -14 -1194 72
-954 338 -1894 779 -2755 232 -453 427 -744 791 -1180 260 -312 471 -532 693
-723 80 -70 162 -75 219 -15 14 16 61 105 103 198 110 242 334 688 455 905
775 1390 1735 2338 3030 2989 234 118 389 187 654 292 203 80 255 111 235 135
-19 23 -74 27 -216 14 -970 -83 -1871 -396 -2691 -936 -612 -403 -1216 -974
-1598 -1512 -54 -76 -69 -90 -81 -81 -20 17 -207 301 -292 444 -93 154 -282
533 -351 700 -363 882 -494 1861 -379 2830 78 663 260 1305 512 1809 90 180
110 206 160 206 18 0 406 -86 862 -190 455 -105 829 -189 831 -188 1 2 -202
289 -452 638 -250 349 -473 661 -495 694 -68 101 -63 113 139 332 433 471
1004 895 1614 1200 1275 638 2705 772 4063 383 516 -148 1108 -413 1425 -638
l65 -46 -230 -6 c-258 -7 -417 -28 -642 -84 -674 -167 -1265 -547 -1655 -1063
-383 -508 -566 -1129 -528 -1798 36 -629 210 -1156 557 -1688 265 -406 531
-701 1344 -1491 299 -291 494 -519 681 -795 293 -432 471 -864 545 -1321 26
-162 26 -596 0 -754 -47 -283 -129 -541 -252 -790 -406 -825 -1158 -1334
-2145 -1451 -202 -24 -585 -24 -775 0 -537 68 -1060 264 -1550 581 -283 183
-567 422 -804 678 -59 63 -64 66 -77 50 -8 -10 -57 -81 -108 -158 -214 -320
-505 -860 -523 -969 -10 -60 14 -85 169 -177 1351 -812 2879 -1079 4238 -739
413 103 825 270 1170 475 827 490 1436 1240 1724 2122 73 224 115 412 153 673
25 179 25 711 0 890 -82 572 -271 1064 -600 1560 -231 348 -517 666 -927 1031
-615 547 -980 982 -1219 1453 -388 765 -384 1600 9 2251 141 234 335 436 570
594 335 225 680 321 1155 321 310 0 544 -37 925 -147 251 -72 321 -81 402 -50
55 21 120 88 138 142 7 22 10 63 8 99 -9 104 -40 150 -232 341 -1050 1049
-2480 1744 -3961 1924 -326 40 -857 59 -1168 41z"/>
</g>
</svg>
