<?xml version="1.0" standalone="no"?>
<!DOCTYPE svg PUBLIC "-//W3C//DTD SVG 20010904//EN"
 "http://www.w3.org/TR/2001/REC-SVG-20010904/DTD/svg10.dtd">
<svg version="1.0" xmlns="http://www.w3.org/2000/svg"
 width="1024.000000pt" height="1024.000000pt" viewBox="0 0 1024.000000 1024.000000"
 preserveAspectRatio="xMidYMid meet">

<g transform="translate(0.000000,1024.000000) scale(0.100000,-0.100000)"
fill="#000000" stroke="none">
<path d="M7315 8506 c-143 -33 -263 -90 -346 -166 l-54 -48 102 -104 c242
-246 1149 -1148 1154 -1148 13 0 92 124 124 193 55 119 78 254 72 427 -5 156
-17 209 -77 354 -86 206 -283 381 -525 465 -93 32 -109 35 -245 38 -98 2 -164
-2 -205 -11z"/>
<path d="M2666 8089 c-154 -20 -302 -96 -421 -214 -85 -85 -142 -176 -182
-290 l-28 -80 0 -2445 0 -2445 24 -70 c73 -214 183 -345 366 -435 169 -82 -86
-75 2595 -75 2274 0 2388 1 2450 18 248 70 429 247 516 507 18 52 19 136 24
1763 3 939 2 1707 -2 1707 -3 0 -162 -161 -352 -359 l-346 -358 -5 -359 c-2
-197 -4 -770 -4 -1271 l-1 -913 -2280 0 -2280 0 0 2295 0 2295 1416 0 1416 0
144 143 c79 78 245 241 369 362 124 122 225 224 225 228 0 10 -3562 6 -3644
-4z"/>
<path d="M6514 7839 l-189 -189 188 -188 c103 -103 187 -191 187 -195 0 -9
-262 -278 -795 -817 -669 -676 -1579 -1601 -1587 -1614 -4 -6 -8 -93 -8 -194
l0 -184 -271 -276 c-343 -350 -369 -375 -375 -370 -7 7 6 90 145 957 l49 303
73 77 c41 42 180 184 309 316 227 231 583 597 1264 1299 l318 328 -127 128
c-113 113 -130 127 -147 117 -23 -15 -901 -912 -1542 -1577 -77 -80 -235 -242
-352 -360 l-212 -215 -31 -175 c-17 -96 -58 -339 -91 -540 -33 -201 -81 -484
-106 -630 -95 -557 -115 -683 -110 -688 5 -5 248 67 781 230 520 159 713 217
885 268 96 28 224 67 285 87 l110 36 185 191 c102 105 228 236 280 291 254
268 1078 1124 1260 1310 114 116 314 323 445 460 210 220 337 352 609 632 l70
72 -20 22 c-10 12 -305 304 -655 650 l-635 628 -190 -190z"/>
</g>
</svg>
